<svg width="172px" height="38px" viewBox="0 0 172 38" version="1.1" xmlns="http://www.w3.org/2000/svg">
    <g stroke="none" stroke-width="1" fill="none" fill-rule="evenodd" transform="translate(-48.000000, 0.000000)">
        <g fill="#FFFFFF">
            <g transform="translate(48.302583, 0.000000)">
                <path d="M9.28028511,30.110905 C13.67471,30.110905 15.8718895,28.6338177 15.8718895,25.6795988 C15.8718895,24.7706084 15.6767453,23.9965578 15.2864509,23.3574239 C14.8961566,22.71829 14.3685444,22.1643823 13.7035986,21.6956841 C13.0386527,21.2269859 12.2797585,20.8222072 11.4268931,20.4813358 C10.5740278,20.1404643 9.67058225,19.799598 8.71652947,19.4587266 C7.61792325,19.0894493 6.57715402,18.6704678 5.59419056,18.2017696 C4.61122709,17.7330714 3.75837453,17.1791637 3.03560728,16.5400298 C2.31284003,15.9008959 1.74186246,15.1410481 1.32265746,14.2604636 C0.903452451,13.3798791 0.693853092,12.3146719 0.693853092,11.0648101 C0.693853092,8.47986856 1.59007104,6.46307629 3.38253383,5.0143728 C5.17499661,3.5656693 7.64682353,2.84132841 10.7980888,2.84132841 C12.6194622,2.84132841 14.2745744,3.03306571 15.7634749,3.41654604 C17.2523755,3.80002638 18.3437377,4.21900787 19.0375942,4.67350309 L17.6932539,8.03959145 C17.0861294,7.67031408 16.1826839,7.30814364 14.9828902,6.95306925 C13.7830966,6.59799487 12.3881767,6.42046034 10.7980888,6.42046034 C9.98858943,6.42046034 9.23692276,6.50567691 8.5430662,6.67611262 C7.84920964,6.84654832 7.24209425,7.10219805 6.72170183,7.44306946 C6.20130941,7.78394087 5.78933826,8.21712512 5.48577601,8.74263522 C5.18221377,9.26814531 5.03043492,9.88596547 5.03043492,10.5961142 C5.03043492,11.3914809 5.18944133,12.0590107 5.50745892,12.5987238 C5.82547651,13.1384368 6.27358549,13.6142294 6.85179929,14.0261157 C7.43001309,14.438002 8.10217655,14.8143752 8.86830984,15.1552466 C9.63444312,15.496118 10.4800681,15.8369843 11.4052102,16.1778557 C12.7061913,16.6891628 13.8987393,17.2004623 14.9828902,17.7117694 C16.0670411,18.2230765 17.0066244,18.8337953 17.8016684,19.5439441 C18.5967124,20.2540928 19.2110553,21.0991572 19.6447157,22.0791625 C20.078376,23.0591678 20.295203,24.2450985 20.295203,25.6369901 C20.295203,28.2219316 19.3339369,30.2103183 17.411376,31.6022099 C15.4888151,32.9941015 12.7784786,33.6900369 9.28028511,33.6900369 C8.09494682,33.6900369 7.00358464,33.6119217 6.00616583,33.455689 C5.00874702,33.2994562 4.11975664,33.1148203 3.33916801,32.9017757 C2.55857938,32.6887311 1.88641591,32.4614869 1.32265746,32.2200363 C0.758899001,31.9785857 0.318017591,31.7726457 0,31.6022099 L1.25760873,28.1935129 C1.9225546,28.5627902 2.93441358,28.9746703 4.29321601,29.4291656 C5.65201844,29.8836608 7.31435819,30.110905 9.28028511,30.110905 Z M44.2435424,22.3247232 C44.2435424,24.1069434 43.9840326,25.7166665 43.4650051,27.1539408 C42.9459777,28.5912151 42.2179084,29.8272524 41.2807755,30.8620899 C40.3436426,31.8969274 39.2263086,32.6946027 37.9287399,33.2551397 C36.6311713,33.8156767 35.2182844,34.095941 33.6900369,34.095941 C32.1617894,34.095941 30.7489025,33.8156767 29.4513339,33.2551397 C28.1537652,32.6946027 27.0364312,31.8969274 26.0992983,30.8620899 C25.1621654,29.8272524 24.4340961,28.5912151 23.9150687,27.1539408 C23.3960412,25.7166665 23.1365314,24.1069434 23.1365314,22.3247232 C23.1365314,20.5712486 23.3960412,18.9687118 23.9150687,17.5170647 C24.4340961,16.0654177 25.1621654,14.8221941 26.0992983,13.7873566 C27.0364312,12.7525191 28.1537652,11.9548438 29.4513339,11.3943068 C30.7489025,10.8337698 32.1617894,10.5535055 33.6900369,10.5535055 C35.2182844,10.5535055 36.6311713,10.8337698 37.9287399,11.3943068 C39.2263086,11.9548438 40.3436426,12.7525191 41.2807755,13.7873566 C42.2179084,14.8221941 42.9459777,16.0654177 43.4650051,17.5170647 C43.9840326,18.9687118 44.2435424,20.5712486 44.2435424,22.3247232 Z M39.7785978,21.9188192 C39.7785978,19.4252949 39.2150779,17.4489231 38.0880212,15.9896447 C36.9609645,14.5303663 35.4273344,13.800738 33.4870849,13.800738 C31.5468354,13.800738 30.0132053,14.5303663 28.8861486,15.9896447 C27.7590919,17.4489231 27.195572,19.4252949 27.195572,21.9188192 C27.195572,24.4123435 27.7590919,26.3887152 28.8861486,27.8479937 C30.0132053,29.3072721 31.5468354,30.0369004 33.4870849,30.0369004 C35.4273344,30.0369004 36.9609645,29.3072721 38.0880212,27.8479937 C39.2150779,26.3887152 39.7785978,24.4123435 39.7785978,21.9188192 Z M58.4141041,0 C59.6116345,0 60.6412031,0.0856579645 61.5028407,0.256976463 C62.3644784,0.428294962 62.9705365,0.585334564 63.3210332,0.72809998 L62.5762315,4.15445282 C62.2257348,3.98313433 61.7292053,3.81895656 61.086628,3.6619146 C60.4440508,3.50487265 59.655445,3.42635284 58.7207872,3.42635284 C56.8222635,3.42635284 55.4933168,3.93316247 54.7339073,4.94679692 C53.9744979,5.96043137 53.5947988,7.32382064 53.5947988,9.03700563 L53.5947988,10.9643291 L62.3571721,10.9643291 L62.3571721,14.3050231 L53.5947988,14.3050231 C53.5947988,26.0016853 53.5947988,32.3118851 53.5947988,33.2356226 C53.5947988,34.6212288 53.0438706,35.5027475 52.3554736,36.2607753 C51.8965423,36.7661272 50.9514828,37.2622279 49.5202952,37.7490775 L49.5202952,33.2356226 L49.5202952,8.95134681 C49.5202952,6.09603849 50.2358819,3.89034591 51.6670767,2.33420288 C53.0982715,0.778059845 55.3472581,0 58.4141041,0 Z M69.3690037,10.9529574 L77.8812046,10.9529574 L77.8812046,14.2928674 L69.3690037,14.2928674 L69.3690037,24.5695135 C69.3690037,25.6828224 69.4554211,26.6034294 69.6282585,27.3313621 C69.801096,28.0592949 70.0603482,28.6302139 70.4060231,29.0441365 C70.751698,29.458059 71.1837851,29.750655 71.7022973,29.9219333 C72.2208096,30.0932116 72.8257316,30.1788495 73.5170813,30.1788495 C74.7269433,30.1788495 75.6991393,30.0432562 76.4336984,29.7720656 C77.1682575,29.5008749 77.6795605,29.3081898 77.9676229,29.1940042 L78.7453875,32.4910949 C78.3421001,32.6909195 77.6363579,32.9406966 76.6281395,33.2404336 C75.6199212,33.5401706 74.4676889,33.6900369 73.1714082,33.6900369 C71.6446775,33.6900369 70.3844235,33.4973517 69.3906083,33.1119756 C68.396793,32.7265994 67.5974319,32.1485438 66.9925009,31.3777915 C66.3875699,30.6070392 65.9626842,29.6578862 65.7178312,28.5303042 C65.4729782,27.4027221 65.3505535,26.0967447 65.3505535,24.6123328 L65.3505535,4.74415033 L69.3690037,4.05904059 L69.3690037,10.9529574 Z M100.631888,33.2841328 C99.8240926,31.2233789 98.9658231,28.8692889 98.0570536,26.2217925 C97.1482841,23.5742961 96.3188641,20.81951 95.5687686,17.9573517 C94.8186732,20.81951 93.9964655,23.5742961 93.1021209,26.2217925 C92.2077763,28.8692889 91.3567192,31.2233789 90.5489241,33.2841328 L87.0436878,33.2841328 C85.7165959,30.3361098 84.4183732,26.9731242 83.1489809,23.1950752 C81.8795886,19.4170262 80.6823388,15.3385118 79.5571956,10.9594096 L83.8846478,10.9594096 C84.173146,12.304624 84.5193387,13.7643028 84.9232363,15.3384899 C85.3271338,16.912677 85.7526624,18.4868405 86.1998347,20.0610275 C86.647007,21.6352146 87.1158096,23.1521358 87.6062566,24.6118365 C88.0967037,26.0715372 88.5582939,27.3451786 88.9910413,28.4327988 C89.4814884,27.0875843 89.9647157,25.6636819 90.4407378,24.1610488 C90.9167599,22.6584157 91.3711379,21.1414946 91.8038852,19.6102399 C92.2366326,18.0789852 92.6477365,16.5763746 93.0372091,15.102363 C93.4266818,13.6283515 93.7656621,12.2473808 94.0541604,10.9594096 L97.3862986,10.9594096 C97.645947,12.2473808 97.9632903,13.6283515 98.338338,15.102363 C98.7133858,16.5763746 99.1172773,18.0789852 99.5500247,19.6102399 C99.982772,21.1414946 100.43715,22.6584157 100.913172,24.1610488 C101.389194,25.6636819 101.872422,27.0875843 102.362869,28.4327988 C102.795616,27.3451786 103.249994,26.0715372 103.726016,24.6118365 C104.202038,23.1521358 104.670841,21.6352146 105.132438,20.0610275 C105.594035,18.4868405 106.026776,16.912677 106.430674,15.3384899 C106.834571,13.7643028 107.180764,12.304624 107.469262,10.9594096 L111.623616,10.9594096 C110.498473,15.3385118 109.301223,19.4170262 108.031831,23.1950752 C106.762439,26.9731242 105.464216,30.3361098 104.137124,33.2841328 L100.631888,33.2841328 Z M122.761993,30.0369004 C123.695577,30.0369004 124.523059,30.0159055 125.244465,29.9739153 C125.965871,29.931925 126.567033,29.8549439 127.04797,29.7429698 L127.04797,23.2345082 C126.765066,23.0945406 126.305354,22.9755699 125.668819,22.8775926 C125.032285,22.7796152 124.261382,22.7306273 123.356089,22.7306273 C122.76199,22.7306273 122.132537,22.772617 121.467712,22.8565975 C120.802887,22.9405781 120.194652,23.115535 119.642989,23.3814735 C119.091326,23.6474119 118.631613,24.0113223 118.263838,24.4732154 C117.896062,24.9351086 117.712177,25.5439586 117.712177,26.2997837 C117.712177,27.6994599 118.164817,28.6722202 119.070111,29.2180939 C119.975404,29.7639676 121.206019,30.0369004 122.761993,30.0369004 Z M122.487814,10.5535055 C124.096739,10.5535055 125.454249,10.759067 126.560384,11.1701962 C127.66652,11.5813253 128.557162,12.1625681 129.232336,12.9139421 C129.907509,13.6653161 130.388743,14.5584453 130.676051,15.5933566 C130.963359,16.6282679 131.107011,17.7694886 131.107011,19.0170529 L131.107011,32.8394291 C130.762241,32.8961366 130.281008,32.9741082 129.663296,33.0733463 C129.045583,33.1725843 128.348872,33.2647326 127.57314,33.3497938 C126.797409,33.434855 125.957045,33.5128266 125.052025,33.5837109 C124.147005,33.6545953 123.249181,33.6900369 122.358526,33.6900369 C121.094371,33.6900369 119.930791,33.562447 118.867751,33.3072634 C117.804711,33.0520798 116.885339,32.6480451 116.109608,32.0951473 C115.333876,31.5422495 114.730538,30.8121518 114.299576,29.9048323 C113.868614,28.9975128 113.653137,27.9059104 113.653137,26.6299924 C113.653137,25.4107818 113.904527,24.3617094 114.407316,23.4827437 C114.910105,22.6037779 115.592452,21.8949452 116.454376,21.3562242 C117.3163,20.8175033 118.321863,20.420557 119.471095,20.1653733 C120.620327,19.9101897 121.827002,19.7825998 123.091158,19.7825998 C123.493389,19.7825998 123.909979,19.8038648 124.340941,19.8463954 C124.771903,19.888926 125.181311,19.9456326 125.569177,20.016517 C125.957043,20.0874013 126.294624,20.1511963 126.581932,20.2079037 C126.86924,20.2646112 127.070353,20.3071412 127.185276,20.3354949 L127.185276,19.2297048 C127.185276,18.5775689 127.11345,17.9325311 126.969796,17.2945721 C126.826142,16.6566131 126.567569,16.0895469 126.194069,15.5933566 C125.820568,15.0971662 125.310604,14.7002199 124.664161,14.4025057 C124.017718,14.1047915 123.177355,13.9559366 122.143046,13.9559366 C120.821429,13.9559366 119.665032,14.0480849 118.673819,14.2323841 C117.682606,14.4166834 116.942799,14.6080683 116.454376,14.8065444 L115.98032,11.5317045 C116.497474,11.3048746 117.359385,11.0851365 118.566079,10.8724834 C119.772773,10.6598304 121.080005,10.5535055 122.487814,10.5535055 Z M145.620824,10.5535055 C145.971878,10.5535055 146.374121,10.5749089 146.827566,10.6177163 C147.28101,10.6605238 147.727135,10.7175995 148.165952,10.7889452 C148.604769,10.8602909 149.007013,10.9316355 149.372694,11.0029812 C149.738375,11.0743269 150.008975,11.1385371 150.184502,11.1956137 L149.482398,14.6629975 C149.160598,14.5488444 148.626712,14.4132896 147.880722,14.256329 C147.134732,14.0993685 146.176662,14.0208894 145.006482,14.0208894 C144.245866,14.0208894 143.492574,14.0993685 142.746584,14.256329 C142.000595,14.4132896 141.510589,14.5203065 141.276553,14.5773831 L141.276553,33.2841328 L137.195572,33.2841328 L137.195572,11.9661434 C138.16097,11.623684 139.360386,11.3026332 140.793857,11.0029812 C142.227327,10.7033293 143.8363,10.5535055 145.620824,10.5535055 Z M152.214022,22.3895189 C152.214022,20.4024411 152.500119,18.6673737 153.072321,17.1842649 C153.644524,15.701156 154.402681,14.4700501 155.346815,13.4909103 C156.290949,12.5117705 157.378117,11.7774266 158.608352,11.2878567 C159.838587,10.7982868 161.097414,10.5535055 162.384869,10.5535055 C165.388932,10.5535055 167.692012,11.4966334 169.294179,13.3829175 C170.896346,15.2692016 171.697417,18.1417819 171.697417,22.0007448 L171.697417,22.6703003 C171.697417,22.9438835 171.683112,23.1958642 171.654502,23.42625 L156.376774,23.42625 C156.548435,25.7589067 157.220762,27.5299713 158.393777,28.7394969 C159.566792,29.9490226 161.397813,30.5537764 163.886893,30.5537764 C165.288789,30.5537764 166.468939,30.4313857 167.427378,30.1866008 C168.385817,29.9418158 169.108212,29.704234 169.594584,29.4738481 L170.152478,32.8432242 C169.666106,33.1024083 168.814968,33.3759874 167.599038,33.6639697 C166.383108,33.951952 165.00269,34.095941 163.457743,34.095941 C161.512255,34.095941 159.831436,33.8007635 158.415235,33.2103998 C156.999034,32.6200361 155.833189,31.8064983 154.917665,30.769762 C154.002141,29.7330257 153.322661,28.5019199 152.879204,27.0764075 C152.435747,25.6508951 152.214022,24.0886145 152.214022,22.3895189 Z M167.231204,19.8892989 C167.25952,18.1134598 166.813554,16.6547566 165.893292,15.5131458 C164.97303,14.3715349 163.705919,13.800738 162.091921,13.800738 C161.185817,13.800738 160.385909,13.9769099 159.692173,14.3292589 C158.998437,14.681608 158.410894,15.1396548 157.929526,15.7034133 C157.448158,16.2671717 157.07298,16.9154842 156.80398,17.6483702 C156.534981,18.3812562 156.35801,19.128225 156.273063,19.8892989 L167.231204,19.8892989 Z" id="Software-Copy-3"></path>
            </g>
        </g>
    </g>
</svg>